<?xml version="1.0" encoding="UTF-8" standalone="no"?>
<svg
   xmlns:dc="http://purl.org/dc/elements/1.1/"
   xmlns:cc="http://creativecommons.org/ns#"
   xmlns:rdf="http://www.w3.org/1999/02/22-rdf-syntax-ns#"
   xmlns:svg="http://www.w3.org/2000/svg"
   xmlns="http://www.w3.org/2000/svg"
   xmlns:sodipodi="http://sodipodi.sourceforge.net/DTD/sodipodi-0.dtd"
   xmlns:inkscape="http://www.inkscape.org/namespaces/inkscape"
   width="397pt"
   height="280pt"
   viewBox="0 0 397 280"
   version="1.1"
   id="svg2"
   inkscape:version="0.48.4 r9939"
   sodipodi:docname="merck2.svg">
  <metadata
     id="metadata40">
    <rdf:RDF>
      <cc:Work
         rdf:about="">
        <dc:format>image/svg+xml</dc:format>
        <dc:type
           rdf:resource="http://purl.org/dc/dcmitype/StillImage" />
        <dc:title></dc:title>
      </cc:Work>
    </rdf:RDF>
  </metadata>
  <defs
     id="defs38" />
  <sodipodi:namedview
     pagecolor="#ffffff"
     bordercolor="#666666"
     borderopacity="1"
     objecttolerance="10"
     gridtolerance="10"
     guidetolerance="10"
     inkscape:pageopacity="0"
     inkscape:pageshadow="2"
     inkscape:window-width="1280"
     inkscape:window-height="971"
     id="namedview36"
     showgrid="true"
     inkscape:zoom="3.4425592"
     inkscape:cx="240.2733"
     inkscape:cy="103.52129"
     inkscape:window-x="-8"
     inkscape:window-y="-8"
     inkscape:window-maximized="1"
     inkscape:current-layer="svg2">
    <inkscape:grid
       type="xygrid"
       id="grid3019" />
  </sodipodi:namedview>
  <path
     fill="#e40031"
     d=" M 22.54 0.00 L 28.87 0.00 C 30.44 1.24 32.20 2.70 32.08 4.92 C 32.33 14.95 32.08 24.99 32.20 35.02 C 32.29 37.69 31.94 41.24 28.84 42.06 C 25.53 42.76 20.21 42.98 19.25 38.78 C 18.55 33.55 19.03 28.24 18.90 22.97 C 19.11 16.66 18.51 10.32 19.20 4.04 C 19.20 2.02 21.13 1.02 22.54 0.00 Z"
     id="path6" />
  <path
     fill="#e40031"
     d=" M 60.38 48.52 C 63.93 46.61 71.16 46.80 71.46 52.10 C 71.53 63.33 71.63 74.59 71.41 85.82 C 71.12 89.53 66.90 90.35 63.88 89.90 C 61.08 90.24 58.27 88.01 58.44 85.10 C 58.31 75.07 58.48 65.02 58.37 54.99 C 58.37 52.72 58.20 49.93 60.38 48.52 Z"
     id="path8" />
  <path
     fill="#fea500"
     d=" M 80.39 48.35 C 83.89 46.78 90.56 46.88 91.09 51.86 C 91.37 62.58 91.14 73.32 91.20 84.05 C 91.43 86.59 89.91 89.54 87.14 89.77 C 84.60 89.85 81.45 90.46 79.46 88.44 C 77.94 87.08 78.24 84.86 78.14 83.04 C 78.21 73.00 78.11 62.95 78.18 52.91 C 78.09 51.13 78.76 49.26 80.39 48.35 Z"
     id="path10" />
  <path
     fill="#004dff"
     d=" M 294.37 94.64 C 302.14 92.74 310.78 93.13 317.91 97.00 C 324.65 100.64 329.13 108.23 328.81 115.91 C 328.67 118.92 325.24 119.06 322.98 118.96 C 320.91 118.78 317.96 119.44 316.77 117.23 C 315.20 114.17 314.68 110.43 311.95 108.08 C 307.72 104.29 301.17 104.34 296.16 106.40 C 290.60 108.81 288.11 115.17 288.20 120.91 C 288.17 133.29 288.20 145.67 288.19 158.06 C 288.16 163.21 289.41 168.96 293.69 172.27 C 300.40 177.23 312.30 176.18 315.58 167.64 C 317.26 164.56 316.44 158.73 321.10 158.48 C 323.96 158.47 328.52 157.47 329.67 161.06 C 330.59 168.63 327.03 176.46 321.07 181.13 C 315.71 185.39 308.66 186.97 301.93 186.67 C 294.74 186.49 287.18 184.33 282.10 178.99 C 277.03 173.71 275.10 166.17 275.14 159.00 C 275.19 145.63 275.05 132.25 275.21 118.88 C 275.41 107.72 283.33 97.10 294.37 94.64 Z"
     id="path12" />
  <path
     fill="#fea500"
     d=" M 0.00 96.71 C 3.12 95.29 6.87 94.40 10.11 95.92 C 12.95 97.57 12.34 101.25 12.48 104.02 C 12.25 113.69 12.69 123.38 12.29 133.04 C 11.71 138.85 3.53 138.48 0.00 135.59 L 0.00 96.71 Z"
     id="path14" />
  <path
     fill="#004dff"
     d=" M 58.43 100.97 C 58.13 98.26 60.08 95.29 62.96 95.26 C 67.89 95.13 72.85 94.97 77.76 95.36 C 80.27 95.76 80.98 98.52 81.58 100.59 C 87.03 120.29 92.75 139.92 98.15 159.63 C 103.93 139.49 109.52 119.29 115.23 99.13 C 115.66 97.29 116.88 95.24 119.02 95.28 C 123.67 95.07 128.34 95.06 132.99 95.30 C 135.75 95.50 137.53 98.37 137.27 100.98 C 137.24 127.33 137.37 153.70 137.20 180.05 C 137.03 186.99 124.13 187.04 124.03 180.02 C 123.58 158.50 124.23 136.94 123.71 115.42 C 123.07 116.94 122.50 118.48 122.02 120.06 C 116.17 140.61 110.43 161.19 104.45 181.70 C 103.35 185.72 98.31 185.38 95.05 184.87 C 92.57 184.61 91.35 182.18 90.84 180.02 C 85.56 161.66 80.22 143.31 74.91 124.96 C 74.01 121.74 73.27 118.44 71.68 115.47 C 71.23 120.97 71.67 126.50 71.47 132.02 C 72.16 139.50 57.77 139.51 58.44 132.05 C 58.40 121.69 58.43 111.33 58.43 100.97 Z"
     id="path16" />
  <path
     fill="#004dff"
     d=" M 153.58 95.48 C 155.34 95.05 157.17 95.18 158.96 95.15 C 170.66 95.26 182.36 95.08 194.05 95.22 C 200.13 95.08 200.04 106.81 193.99 106.71 C 183.86 106.88 173.72 106.67 163.59 106.80 C 163.31 115.12 163.48 123.46 163.47 131.79 C 171.98 132.54 180.54 131.89 189.07 132.17 C 195.41 131.80 195.31 143.63 189.12 143.52 C 180.61 143.71 172.09 143.45 163.58 143.62 C 163.34 153.57 163.41 163.53 163.54 173.48 C 174.36 173.78 185.18 173.38 195.99 173.67 C 200.38 173.95 200.44 179.39 199.45 182.55 C 198.35 185.04 195.35 185.10 193.02 185.11 C 181.36 185.09 169.69 185.08 158.03 185.11 C 155.84 185.02 153.23 185.16 151.65 183.35 C 150.22 181.98 150.25 179.88 150.21 178.06 C 150.27 152.36 150.20 126.66 150.24 100.97 C 150.04 98.65 151.32 96.26 153.58 95.48 Z"
     id="path18" />
  <path
     d="M 271.1875 118.9375 C 268.525 119.0625 265.225 118.525 263.3125 120.875 C 261.5375 122.6125 261.7 125.26875 261.625 127.53125 C 261.6875 157.53125 261.68125 187.53125 261.65625 217.53125 C 261.74375 220.95625 261.325 224.48125 262.1875 227.84375 C 263.825 231.86875 269.00625 231.59375 272.59375 231.21875 C 275.83125 231.09375 278.58125 228.2875 278.34375 225 C 278.53125 209.8375 278.275 194.69375 278.4375 179.53125 C 282.525 179.41875 286.63125 179.0625 290.71875 179.5 C 293.34375 179.8375 293.9875 182.91875 295.1875 184.84375 C 301.3375 197.89375 307.275 211.0375 313.0625 224.25 C 314.3125 226.9 315.63125 230.2625 318.84375 230.9375 C 322.46875 231.6375 326.2875 231.65 329.9375 231 C 332.675 230.6625 333.61875 227.275 332.40625 225.0625 C 325.14375 209.1625 317.0875 193.625 309.75 177.75 C 316.85 174.375 323.8875 169.56875 327 162.03125 C 330.8 152.68125 330.74375 141.55 326.28125 132.4375 C 322.13125 124.075 312.875 119.3125 303.75 119.0625 C 292.8875 118.85 282.0375 119.0625 271.1875 118.9375 z M 289.3125 132.65625 C 292.91406 132.63281 296.5 132.65625 300.09375 132.8125 C 304.39375 133 308.675 135.35625 310.625 139.28125 C 313.325 144.78125 313.175 151.48125 310.875 157.09375 C 308.875 161.93125 304.025 165.4 298.75 165.5 C 292 165.775 285.23125 165.575 278.46875 165.5 C 278.36875 154.5875 278.3 143.69375 278.5 132.78125 C 282.1 132.74375 285.71094 132.67969 289.3125 132.65625 z "
     id="path20"
     style="fill:#004dff;fill-opacity:1"
     transform="scale(0.8,0.8)" />
  <path
     fill="#004dff"
     d=" M 340.84 100.96 C 340.59 98.39 342.01 95.37 344.89 95.24 C 348.09 94.80 353.41 94.70 353.74 99.06 C 354.23 110.26 353.49 121.49 354.09 132.69 C 364.09 121.68 372.22 109.10 381.84 97.77 C 384.83 94.38 389.84 94.97 393.87 95.38 C 395.33 95.34 395.78 96.75 396.17 97.90 C 395.31 99.97 393.86 101.73 392.51 103.49 C 386.27 111.26 380.30 119.24 374.05 126.99 C 372.95 128.51 371.53 129.93 371.09 131.80 C 372.38 135.62 374.70 138.99 376.52 142.57 C 383.32 155.33 390.38 167.95 397.00 180.79 L 397.00 183.58 C 392.33 185.93 384.83 186.38 382.12 180.98 C 374.99 168.02 368.35 154.78 361.09 141.89 C 358.35 145.61 353.71 148.84 353.87 153.92 C 353.70 162.95 354.16 171.99 353.74 181.01 C 353.69 183.38 351.40 184.98 349.19 185.06 C 346.53 185.28 342.95 185.38 341.49 182.65 C 340.63 180.54 340.85 178.20 340.78 175.97 C 340.89 150.97 340.76 125.96 340.84 100.96 Z"
     id="path22" />
  <path
     fill="#e40031"
     d=" M 41.32 143.28 C 44.88 142.02 51.31 142.13 51.67 147.09 C 51.82 158.07 51.72 169.05 51.71 180.03 C 51.98 187.11 38.59 187.08 38.71 180.06 C 38.58 169.70 38.71 159.33 38.66 148.97 C 38.54 146.81 39.11 144.22 41.32 143.28 Z"
     id="path26" />
  <path
     fill="#004dff"
     d=" M 61.24 143.21 C 63.85 142.49 66.94 142.33 69.42 143.58 C 71.64 144.93 71.53 147.73 71.52 149.99 C 71.42 159.99 71.59 169.99 71.45 179.99 C 71.76 187.08 58.31 187.10 58.47 180.07 C 58.35 169.70 58.47 159.32 58.41 148.94 C 58.24 146.70 58.91 144.07 61.24 143.21 Z"
     id="path28" />
  <path
     fill="#fea500"
     d=" M 22.29 190.44 C 25.48 189.92 30.25 189.42 31.69 193.17 C 32.48 196.71 32.03 200.38 32.11 203.99 C 31.98 212.02 32.35 220.06 31.98 228.08 C 31.61 233.16 24.80 233.42 21.26 231.69 C 18.79 230.43 19.12 227.36 19.08 225.05 C 19.20 215.00 19.02 204.96 19.15 194.91 C 19.02 192.92 20.37 190.97 22.29 190.44 Z"
     id="path30" />
  <path
     fill="#e40031"
     d=" M 41.44 190.62 C 43.74 189.87 46.31 189.99 48.66 190.46 C 50.95 191.17 51.97 193.69 51.75 195.93 C 51.72 206.31 51.75 216.69 51.73 227.08 C 52.48 234.67 37.92 234.67 38.68 227.03 C 38.64 216.68 38.68 206.33 38.66 195.99 C 38.44 193.83 39.43 191.58 41.44 190.62 Z"
     id="path32" />
  <path
     fill="#e40031"
     d=" M 78.12 244.97 C 78.01 242.37 78.24 239.04 81.11 237.99 C 84.61 236.93 90.55 237.11 91.04 241.82 C 91.46 252.54 91.14 263.31 91.21 274.05 C 91.49 276.64 89.96 278.73 87.83 280.00 L 81.17 280.00 C 79.69 278.71 78.01 277.24 78.21 275.07 C 78.03 265.04 78.24 255.00 78.12 244.97 Z"
     id="path34" />
</svg>
