<?xml version="1.0" encoding="UTF-8" standalone="no"?>
<!-- Created with sK1/UniConvertor (http://sk1project.org/) -->

<svg
   xmlns:dc="http://purl.org/dc/elements/1.1/"
   xmlns:cc="http://creativecommons.org/ns#"
   xmlns:rdf="http://www.w3.org/1999/02/22-rdf-syntax-ns#"
   xmlns:svg="http://www.w3.org/2000/svg"
   xmlns="http://www.w3.org/2000/svg"
   xmlns:sodipodi="http://sodipodi.sourceforge.net/DTD/sodipodi-0.dtd"
   xmlns:inkscape="http://www.inkscape.org/namespaces/inkscape"
   width="446.23724"
   height="185.11588"
   viewBox="0 0 356.98981 148.09269"
   id="svg2"
   version="1.1"
   inkscape:version="0.48.4 r9939"
   sodipodi:docname="Logo-Sparkasse-vekt_01.cdr"
   style="fill-rule:evenodd">
  <metadata
     id="metadata106">
    <rdf:RDF>
      <cc:Work
         rdf:about="">
        <dc:format>image/svg+xml</dc:format>
        <dc:type
           rdf:resource="http://purl.org/dc/dcmitype/StillImage" />
        <dc:title></dc:title>
      </cc:Work>
    </rdf:RDF>
  </metadata>
  <defs
     id="defs104" />
  <sodipodi:namedview
     pagecolor="#ffffff"
     bordercolor="#666666"
     borderopacity="1"
     objecttolerance="10"
     gridtolerance="10"
     guidetolerance="10"
     inkscape:pageopacity="0"
     inkscape:pageshadow="2"
     inkscape:window-width="1920"
     inkscape:window-height="1027"
     id="namedview102"
     showgrid="false"
     fit-margin-top="0"
     fit-margin-left="0"
     fit-margin-right="0"
     fit-margin-bottom="0"
     inkscape:zoom="2.5371819"
     inkscape:cx="241.06479"
     inkscape:cy="81.252849"
     inkscape:window-x="-8"
     inkscape:window-y="-8"
     inkscape:window-maximized="1"
     inkscape:current-layer="g6" />
  <g
     id="g4"
     transform="translate(-103.32424,-97.185531)">
    <g
       id="g6"
       transform="matrix(4,0,0,4,-534.03456,17.580747)">
      <g
         transform="matrix(0.25,0,0,0.25,137.34065,16.976112)"
         id="g8">
        <path
           style="fill:#f60404;stroke:none"
           d="m 109.935,21.9501 0,0.7069 c 0,5.0426 4.476,10.6033 8.836,10.6033 l 2.474,0 c 13.876,0 13.648,-21.56 0,-21.56 l -0.353,0 c -6.036,0 -10.957,4.3566 -10.957,10.2498 z"
           id="path10"
           inkscape:connector-curvature="0" />
        <path
           style="fill:#f60404;stroke:none"
           d="m 206.775,84.863 c 0,5.2141 -2.972,7.0691 -8.129,7.0691 l -2.121,0 c -3.073,0 -6.591,-1.5154 -9.109,-2.0911 l -1.847,4.5652 c 1.806,0.8665 7.309,2.474 9.896,2.474 l 6.008,0 c 10.941,0 16.385,-15.1483 5.854,-21.0517 -4,-2.242 -10.402,-3.6151 -13.249,-6.1906 -4.583,-4.1468 0.383,-9.5159 6.335,-9.5159 2.956,0 8.261,1.1668 10.249,2.1206 l 0,-5.3016 c -2.909,-0.2421 -6.329,-1.7672 -9.895,-1.7672 -9.111,0 -17.357,7.2692 -12.667,16.2011 3.488,6.6416 18.675,7.1771 18.675,13.4881 z"
           id="path12"
           inkscape:connector-curvature="0" />
        <path
           style="fill:#e27373;stroke:none"
           d="m 138.21,74.9667 0,6.3619 -50.2138,5e-4 0.3801,6.3615 0,-6.0038 49.8337,-0.3582 0,-6.3619 -49.8337,-0.3534 0,-24.7411 0,-0.707 -0.3535,25.8015 50.1872,0 z"
           id="path14"
           inkscape:connector-curvature="0" />
        <path
           style="fill:#f60404;stroke:none"
           d="m 412.824,78.5013 c 0,-3.3236 3.085,-8.1295 6.361,-8.1295 l 1.414,0 c 3.695,0 5.301,3.5492 5.301,7.4225 l 0,1.7671 -13.076,0 0,-1.0601 z m 0.353,4.9481 c 2.797,0 18.732,0.8569 18.732,-1.0604 l 0,-1.4137 c 0,-8.319 -3.04,-14.4912 -11.31,-14.4912 l -3.181,0 c -6.237,0 -10.249,8.3007 -10.249,15.5514 0,7.4801 4.773,14.8447 11.663,14.8447 l 6.008,0 c 2.571,0 3.11,-0.9073 4.948,-1.0604 l -1.046,-4.2448 -6.715,0.8441 -0.368,-0.1335 c -6.078,0 -8.017,-3.2531 -8.482,-8.8362 z"
           id="path16"
           inkscape:connector-curvature="0" />
        <path
           style="fill:#f60404;stroke:none"
           d="m 322.896,67.3807 c -8.187,-0.1897 -6.058,-0.5055 -10.358,3.7862 -1.464,1.4615 -5.629,6.573 -7.157,6.9809 l 0,-24.0344 -5.301,0 0,42.0599 5.655,0 0,-13.7843 0.302,-0.252 11.556,13.8739 6.874,0.1624 0.319,-0.2594 -13.681,-16.2862 11.791,-12.247 z"
           id="path18"
           inkscape:connector-curvature="0" />
        <path
           style="fill:#f60404;stroke:none"
           d="m 254.841,87.3372 c 0,-4.4986 5.347,-5.6552 9.896,-5.6552 l 1.767,0 0,7.776 c 0,1.7589 -4.312,2.8276 -6.361,2.8276 l -0.707,0 c -2.367,0 -4.595,-1.5202 -4.595,-3.5346 l 0,-1.4138 z m -3.181,-15.198 c 2.72,-0.6336 4.665,-1.4139 8.129,-1.4139 3.417,0 6.715,1.2886 6.715,4.595 l 0,2.474 c -7.552,0 -17.318,1.3331 -17.318,8.4827 0,6.0863 2.259,10.6032 8.129,10.6032 l 1.767,0 c 4.984,0 7.422,-4.8704 7.422,-0.7069 l 5.302,0 0,-20.1464 c 0,-6.1234 -2.856,-9.5428 -8.836,-9.5428 l -0.707,0 -10.609,1.0028 0.006,4.6523 z"
           id="path20"
           inkscape:connector-curvature="0" />
        <path
           style="fill:#f60404;stroke:none"
           d="m 331.535,87.6906 c 0,-4.5362 2.963,-5.6551 7.422,-5.6551 l 3.888,0 0,7.4225 c 0,1.1523 -3.277,2.8276 -4.595,2.8276 l -3.534,0 c -1.21,0 -3.181,-1.8686 -3.181,-3.5346 l 0,-1.0604 z m -3.534,-15.5514 c 2.347,-0.0525 5.087,-1.4139 7.775,-1.4139 4.549,0 7.069,0.6947 7.069,5.3016 l 0,1.7674 -4.948,0 c -5.144,0 -12.017,3.5249 -12.017,8.4827 l 0,2.474 c 0,3.9759 3.193,7.7758 6.715,7.7758 l 3.888,0 c 5.044,0 6.715,-4.4436 6.715,-0.3535 l 5.302,0 0,-22.6205 c 0,-5.2571 -6.274,-7.0687 -12.017,-7.0687 l -2.121,0 c -2.187,0 -4.157,0.8767 -6.361,1.0602 l 0,4.5949 z"
           id="path22"
           inkscape:connector-curvature="0" />
        <path
           style="fill:#f60404;stroke:none"
           d="m 88.3763,49.1652 0,0.707 0,24.7411 49.8337,0.3534 0,6.3619 -49.8337,0.3582 0,6.0038 c 1.2405,5.3249 4.4053,8.8362 10.9562,8.8362 l 44.5325,0 c 6.097,0 9.896,-5.6781 9.896,-12.0172 l 0,-22.6202 -50.541,0 0,-6.7156 50.541,0 0,-3.888 c 0,-6.1698 -4.9,-11.3102 -11.31,-11.3102 l -43.8255,0 c -5.2367,0 -9.8529,4.4255 -10.2492,9.1896 z"
           id="path24"
           inkscape:connector-curvature="0" />
        <path
           style="fill:#f60404;stroke:none"
           d="m 285.236,80.9753 c 0,-5.1219 5.548,-10.9082 10.603,-8.4826 0,-1.685 0.686,-5.6552 -1.06,-5.6552 l -0.707,0 c -6.864,0 -6.075,3.2786 -8.836,5.3017 l 0,-4.9482 -5.301,0 0,28.9823 5.301,0 0,-15.198 z"
           id="path26"
           inkscape:connector-curvature="0" />
        <path
           style="fill:#f60404;stroke:none"
           d="m 360.87,73.5528 c 0,-1.01 2.035,-2.4741 2.827,-2.4741 l 3.534,0 7.437,0.9695 -0.015,-4.5039 c -2.097,-0.1744 -3.274,-1.0602 -5.654,-1.0602 l -2.121,0 c -6.486,0 -11.663,2.1432 -11.663,8.4826 0,9.9604 15.551,7.4206 15.551,13.0774 l 0,0.7069 c 0,6.2034 -12.02,2.1836 -14.844,2.1206 l -1.639,3.9413 c 1.715,0.9219 6.232,2.0673 9.061,2.0673 l 2.474,0 c 7.231,0 13.114,-5.4552 9.958,-12.4324 -2.705,-5.9822 -14.906,-5.5296 -14.906,-9.1275 l 0,-1.7675 z"
           id="path28"
           inkscape:connector-curvature="0" />
        <path
           style="fill:#f60404;stroke:none"
           d="m 402.221,86.6305 c 0,-5.0106 -6.516,-6.8205 -10.344,-8.0349 -7.453,-2.3635 -7.553,-7.5169 -0.613,-7.5169 l 3.888,0 c 2.697,0 3.176,1.0132 5.302,1.0605 0,-5.0276 0.316,-5.6551 -5.655,-5.6551 l -5.302,0 c -3.574,0 -8.482,3.753 -8.482,7.0687 l 0,3.1811 c 0,4.4588 7.036,6.2192 10.607,7.4185 7.457,2.5047 5.609,8.1332 0.349,8.1332 l -4.241,0 c -2.295,0 -3.726,-1.3552 -6.362,-1.414 l -1.486,3.8558 c 1.983,1.0431 4.895,1.7994 7.848,1.7994 l 4.948,0 c 4.619,0 9.543,-2.9248 9.543,-7.0688 l 0,-2.8275 z"
           id="path30"
           inkscape:connector-curvature="0" />
        <path
           style="fill:#f60404;stroke:none"
           d="m 224.446,89.8112 c 0,-7.617 -0.548,-18.7325 6.715,-18.7325 l 0.354,0 c 5.195,0 6.715,4.9786 6.715,10.2499 0,5.629 -1.514,10.957 -7.069,10.957 l -1.767,0 c -2.243,0 -2.986,-1.9505 -4.948,-2.4744 z m 9.896,6.7156 c 6.294,0 10.25,-8.1978 10.25,-15.1982 l 0,-1.0602 c 0,-7.6207 -4.284,-13.7843 -12.37,-13.7843 -4.128,0 -5.679,2.9543 -8.129,4.5946 l 0,-3.8877 -5.302,0 0,40.999 5.655,0 0,-13.4304 c 1.685,0.3924 3.039,1.7672 4.595,1.7672 l 5.301,0 z"
           id="path32"
           inkscape:connector-curvature="0" />
        <path
           style="fill:#f60404;stroke:none"
           d="m 200.767,154.492 -5.655,0 0,-30.397 7.775,0 c 6.335,0 10.249,7.339 10.249,14.138 l 0,4.595 c 0,6.465 -5.266,11.664 -12.369,11.664 z m 1.413,4.948 c 11.311,0 17.318,-8.532 17.318,-20.147 0,-13.222 -6.479,-20.146 -19.792,-20.146 l -10.249,0 0,40.293 12.723,0 z"
           id="path34"
           inkscape:connector-curvature="0" />
        <path
           style="fill:#e27373;stroke:none"
           d="m 355.922,130.104 7.422,0.353 -7.422,-0.353 0,-8.836 -1.061,0.353 0.685,0 0.376,8.483 z"
           id="path36"
           inkscape:connector-curvature="0" />
        <path
           style="fill:#f60404;stroke:none"
           d="m 308.916,136.819 c 0.527,0.759 0.706,1.168 0.706,2.474 l 0,19.793 5.302,0 0,-21.56 c 0,-5.105 -3.742,-8.129 -8.836,-8.129 -4.994,0 -6.359,2.781 -8.835,4.595 -1.675,-1.227 -2.137,-4.241 -6.716,-4.241 l -2.827,0 c -3.342,0 -5.044,2.531 -7.069,3.888 l 0,-3.182 -5.301,0 0,28.983 5.655,0 0,-18.026 c 0,-3.924 2.869,-7.069 6.715,-7.069 3.841,0 4.594,2.538 4.594,6.362 l 0,18.733 5.655,0 0,-16.259 c 0,-4.867 1.897,-8.836 6.716,-8.836 1.788,0 3.823,0.91 4.241,2.474 z"
           id="path38"
           inkscape:connector-curvature="0" />
        <path
           style="fill:#f60404;stroke:none"
           d="m 260.849,142.474 c 0,-4.276 4.163,-7.068 8.836,-7.068 l 1.414,0 0,-4.242 c 0,-0.814 -0.246,-1.06 -1.06,-1.06 l -2.828,0 c -3.025,0 -5.184,3.923 -6.715,4.948 l 0,-4.595 -5.302,0 0,28.983 5.655,0 0,-16.966 z"
           id="path40"
           inkscape:connector-curvature="0" />
        <path
           style="fill:#f60404;stroke:none"
           d="m 436.15,134.699 7.422,-0.354 0,-3.864 -7.422,-0.377 0,-8.836 -5.546,2.368 -0.109,6.468 -3.534,0 c -0.815,0 -1.061,0.246 -1.061,1.06 l 0,3.535 4.595,0 0,16.965 c 0,3.676 2.76,8.129 6.008,8.129 l 4.948,0 c 1.381,0 2.626,-0.271 3.535,-0.707 l -0.742,-3.881 c -5.826,-0.006 -8.152,1.512 -8.109,-6 0.027,-4.835 0.015,-9.671 0.015,-14.506 z"
           id="path42"
           inkscape:connector-curvature="0" />
        <path
           style="fill:#e27373;stroke:none"
           d="m 436.15,134.699 7.775,0 0,-4.595 -7.775,0 7.422,0.377 0,3.864 -7.422,0.354 z"
           id="path44"
           inkscape:connector-curvature="0" />
        <path
           style="fill:#f60404;stroke:none"
           d="m 372.179,152.018 0,-2.475 c 0,-2.133 4.101,-4.595 6.715,-4.595 l 4.948,0 0,7.423 c 0,1.432 -4.248,3.181 -5.654,3.181 l -1.767,0 c -1.981,0 -4.242,-1.745 -4.242,-3.534 z m 4.908,-18.263 c 4.119,-0.465 6.755,1.63 6.755,5.538 l 0,1.414 c -9.212,0 -17.317,1.6 -17.317,10.957 0,4.365 3.604,8.129 8.128,8.129 l 3.181,0 c 3.45,0 6.008,-4.74 6.008,-0.353 l 5.655,0 0,-20.853 c 0,-5.793 -5.49,-10.134 -11.309,-9.19 l -9.209,1.297 -0.024,4.46 8.132,-1.399 z"
           id="path46"
           inkscape:connector-curvature="0" />
        <path
           style="fill:#f60404;stroke:none"
           d="m 402.221,143.181 c 0,-4.019 2.762,-8.836 6.715,-8.836 l 1.06,0 c 1.888,0 6.008,1.585 6.008,3.181 l 0,6.716 c 0,4.863 -1.178,10.957 -5.654,10.957 l -1.414,0 c -4.98,0 -6.715,-3.576 -6.715,-8.483 l 0,-3.535 z m -6.009,3.535 c 0,6.987 3.818,13.077 10.603,13.077 l 1.414,0 c 4.985,0 5.256,-2.201 7.775,-3.888 l 0,3.535 5.655,0 0,-42.413 -5.655,0 0,15.198 c -1.989,-1.333 -4.472,-2.828 -7.775,-2.828 -7.067,0 -12.017,6.784 -12.017,14.138 l 0,3.181 z"
           id="path48"
           inkscape:connector-curvature="0" />
        <path
           style="fill:#f60404;stroke:none"
           d="m 230.101,149.543 c 0,-3.95 6.12,-4.595 10.249,-4.595 l 1.061,0 0,7.423 c 0,1.932 -4.121,3.181 -6.362,3.181 l -1.06,0 c -2.065,0 -3.888,-1.823 -3.888,-3.888 l 0,-2.121 z m -3.534,-14.137 c 2.66,-0.62 4.828,-1.414 8.129,-1.414 4.365,0 6.715,0.881 6.715,5.301 l 0,1.414 c -8.629,0 -17.318,1.677 -17.318,10.25 0,5.092 3.286,8.836 8.482,8.836 l 0.707,0 c 3.837,0 6.193,-1.295 8.482,-2.827 l 0,2.474 5.302,0 0,-20.147 c 0,-6.183 -4.635,-10.812 -10.603,-9.896 l -9.914,1.296 0.018,4.713 z"
           id="path50"
           inkscape:connector-curvature="0" />
        <path
           style="fill:#e27373;stroke:none"
           d="m 314.924,137.526 0,21.56 -5.302,0 0,-19.793 c 0,-1.306 -0.179,-1.715 -0.706,-2.474 0.092,1.106 0.353,1.256 0.353,2.474 l 0,20.147 6.008,0 -0.353,-21.914 z"
           id="path52"
           inkscape:connector-curvature="0" />
        <path
           style="fill:#f60404;stroke:none"
           d="m 342.845,149.897 c 0,-5.415 -6.396,-6.717 -10.354,-8.026 -7.24,-2.393 -7.207,-7.879 -0.956,-7.879 l 2.827,0 c 1.195,0 5.986,1.064 6.716,1.414 0,-3.951 1.031,-4.585 -2.257,-5.166 -2.235,-0.396 -3.747,-0.843 -6.226,-0.843 -5.956,0 -10.956,2.938 -10.956,8.836 0,9.471 15.551,8.079 15.551,12.371 l 0,0.353 c 0,8.013 -11.77,3.113 -15.198,2.828 l -1.13,4.22 c 2.874,0.675 5.467,1.788 8.906,1.788 l 4.241,0 c 3.942,0 8.836,-3.308 8.836,-7.422 l 0,-2.474 z"
           id="path54"
           inkscape:connector-curvature="0" />
        <path
           style="fill:#f60404;stroke:none"
           d="m 363.344,130.457 -7.422,-0.353 -0.376,-8.483 -0.685,0 -4.525,1.933 -0.069,6.903 -4.595,0 0,4.242 4.595,0 0,19.086 c 0,3.061 3.648,6.008 7.068,6.008 l 2.474,0 c 2.259,0 2.69,-0.707 4.948,-0.707 -1.113,-4.778 0.145,-4.321 -4.023,-3.697 -2.731,0.41 -4.812,-0.698 -4.812,-3.371 l 0,-17.319 7.422,0 0,-4.242 z"
           id="path56"
           inkscape:connector-curvature="0" />
      </g>
    </g>
  </g>
</svg>
